# xmcd
#
# Track frame offsets:
#	150
#	13062
#	29638
#	44310
#	55656
#	68804
#	91105
#	103305
#	116107
#	128238
#	138319
#	150791
#	162936
#	179214
#	200405
#
# Disc length: 2903 seconds
#
# Revision: 1
# Processed by: cddbd v1.5.1PL0 Copyright (c) Steve Scherf et al.
# Submitted via: audiograbber 1.83.01
#
DISCID=cf0b550f
DTITLE=mixed - CKC027
DYEAR=1900
DGENRE=Karaoke
TTITLE0=Merle Haggard - Okie From Muskogee
TTITLE1=Merle Haggard - Nobody's Darlin' But Mine
TTITLE2=Merle Haggard  - That's The Way Love Goes
TTITLE3=Merle Haggard - Working Man Blues
TTITLE4=Merle Haggard - The Fightin' Side Of Me
TTITLE5=Merle Haggard - Just Stay Here And Drink
TTITLE6=Merle Haggard - Today I Started Loving You Again
TTITLE7=Merle Haggard - If We Make It Through December
TTITLE8=Merle Haggard and Jewel - That's The Way Love Goes
TTITLE9=Merle Haggard - Mama Tried
TTITLE10=Marty Robbins - Singing The Blues
TTITLE11=Marty Robbins - White Sport Coat (And A Pink Carnation)
TTITLE12=Marty Robbins - My Woman, My Woman, My Wife
TTITLE13=Marty Robbins - El Paso
TTITLE14=Marty Robbins - Don't Worry About Me
EXTD=
EXTT0=
EXTT1=
EXTT2=
EXTT3=
EXTT4=
EXTT5=
EXTT6=
EXTT7=
EXTT8=
EXTT9=
EXTT10=
EXTT11=
EXTT12=
EXTT13=
EXTT14=
PLAYORDER=
